<svg width="29" height="29" viewBox="0 0 29 29" fill="none" xmlns="http://www.w3.org/2000/svg">
<path d="M14.5 12.6875C13.3051 12.6875 12.137 12.3332 11.1435 11.6693C10.1499 11.0054 9.37555 10.0618 8.91827 8.95788C8.46099 7.85391 8.34135 6.63913 8.57447 5.46716C8.80758 4.29519 9.383 3.21867 10.2279 2.37373C11.0729 1.52879 12.1494 0.953375 13.3214 0.720256C14.4933 0.487137 15.7081 0.606782 16.8121 1.06406C17.9161 1.52134 18.8596 2.29572 19.5235 3.28926C20.1874 4.28281 20.5417 5.4509 20.5417 6.64583C20.5417 8.24818 19.9052 9.7849 18.7721 10.9179C17.6391 12.051 16.1024 12.6875 14.5 12.6875ZM14.5 3.02083C13.7831 3.02083 13.0822 3.23344 12.4861 3.63176C11.89 4.03008 11.4253 4.59622 11.151 5.25861C10.8766 5.92099 10.8048 6.64985 10.9447 7.35304C11.0846 8.05622 11.4298 8.70213 11.9368 9.2091C12.4437 9.71606 13.0897 10.0613 13.7928 10.2012C14.496 10.3411 15.2249 10.2693 15.8873 9.9949C16.5497 9.72053 17.1158 9.2559 17.5141 8.65978C17.9124 8.06365 18.125 7.36279 18.125 6.64583C18.125 5.68442 17.7431 4.76239 17.0633 4.08257C16.3835 3.40275 15.4615 3.02083 14.5 3.02083Z" fill="black"/>
<path d="M25.375 28.3958H3.62496C3.30449 28.3958 2.99714 28.2685 2.77054 28.0419C2.54393 27.8153 2.41663 27.508 2.41663 27.1875V23.5625C2.41663 20.9987 3.43508 18.54 5.24793 16.7271C7.06078 14.9143 9.51953 13.8958 12.0833 13.8958H16.9166C19.4804 13.8958 21.9391 14.9143 23.752 16.7271C25.5648 18.54 26.5833 20.9987 26.5833 23.5625V27.1875C26.5833 27.508 26.456 27.8153 26.2294 28.0419C26.0028 28.2685 25.6954 28.3958 25.375 28.3958ZM4.83329 25.9792H24.1666V23.5625C24.1666 21.6397 23.4028 19.7956 22.0431 18.436C20.6835 17.0763 18.8394 16.3125 16.9166 16.3125H12.0833C10.1605 16.3125 8.31641 17.0763 6.95677 18.436C5.59713 19.7956 4.83329 21.6397 4.83329 23.5625V25.9792Z" fill="black"/>
</svg>
