<svg width="35" height="35" viewBox="0 0 35 35" fill="none" xmlns="http://www.w3.org/2000/svg">
<path d="M10.9375 12.3958V11.6667C10.9375 10.9895 10.9375 10.6509 10.9656 10.3657C11.2384 7.5962 13.4295 5.40504 16.199 5.13226C16.4843 5.10417 16.8229 5.10417 17.5 5.10417C18.1771 5.10417 18.5157 5.10417 18.801 5.13226C21.5705 5.40502 23.7616 7.5962 24.0344 10.3657C24.0625 10.6509 24.0625 10.9895 24.0625 11.6667V12.3958" stroke="#222222" stroke-width="2.66667" stroke-linecap="round"/>
<path d="M22.6042 19.6875V16.7708" stroke="#222222" stroke-width="2.66667" stroke-linecap="round"/>
<path d="M12.3959 19.6875V16.7708" stroke="#222222" stroke-width="2.66667" stroke-linecap="round"/>
<path d="M8.02087 17.6458C8.02087 15.1709 8.02087 13.9335 8.78972 13.1647C9.55857 12.3958 10.796 12.3958 13.2709 12.3958H21.7292C24.2041 12.3958 25.4415 12.3958 26.2104 13.1647C26.9792 13.9335 26.9792 15.1709 26.9792 17.6458V21.1458C26.9792 25.2706 26.9792 27.333 25.6978 28.6144C24.4163 29.8958 22.354 29.8958 18.2292 29.8958H16.7709C12.6461 29.8958 10.5837 29.8958 9.30228 28.6144C8.02087 27.333 8.02087 25.2706 8.02087 21.1458V17.6458Z" stroke="#222222" stroke-width="2.66667"/>
</svg>
