<svg width="32" height="32" viewBox="0 0 32 32" fill="none" xmlns="http://www.w3.org/2000/svg">
<g clip-path="url(#clip0_174_451)">
<path d="M12 14C13.1046 14 14 12.6569 14 11C14 9.34315 13.1046 8 12 8C10.8954 8 10 9.34315 10 11C10 12.6569 10.8954 14 12 14Z" fill="black"/>
<path d="M20 14C21.1046 14 22 12.6569 22 11C22 9.34315 21.1046 8 20 8C18.8954 8 18 9.34315 18 11C18 12.6569 18.8954 14 20 14Z" fill="black"/>
<path d="M24.1419 24H21.8579C21.8579 22.4463 21.2407 20.9563 20.1421 19.8577C19.0436 18.7592 17.5535 18.142 15.9999 18.142C14.4463 18.142 12.9563 18.7592 11.8577 19.8577C10.7591 20.9563 10.1419 22.4463 10.1419 24H7.85791C7.85791 21.8406 8.71573 19.7696 10.2426 18.2427C11.7696 16.7158 13.8405 15.858 15.9999 15.858C18.1593 15.858 20.2303 16.7158 21.7572 18.2427C23.2841 19.7696 24.1419 21.8406 24.1419 24Z" fill="black"/>
<path d="M16 2C18.7689 2 21.4757 2.82109 23.778 4.35943C26.0803 5.89777 27.8747 8.08427 28.9343 10.6424C29.9939 13.2006 30.2712 16.0155 29.731 18.7313C29.1908 21.447 27.8574 23.9416 25.8995 25.8995C23.9416 27.8574 21.447 29.1908 18.7313 29.731C16.0155 30.2712 13.2006 29.9939 10.6424 28.9343C8.08427 27.8747 5.89777 26.0803 4.35943 23.778C2.82109 21.4757 2.00001 18.7689 2.00001 16C2.00424 12.2883 3.4806 8.72977 6.10519 6.10518C8.72978 3.48059 12.2883 2.00423 16 2ZM16 0C12.8355 0 9.74207 0.938384 7.11088 2.69649C4.4797 4.45459 2.42894 6.95345 1.21793 9.87706C0.0069325 12.8007 -0.309921 16.0177 0.307443 19.1214C0.924806 22.2251 2.44866 25.0761 4.6863 27.3137C6.92394 29.5513 9.77487 31.0752 12.8786 31.6926C15.9823 32.3099 19.1993 31.9931 22.1229 30.7821C25.0466 29.5711 27.5454 27.5203 29.3035 24.8891C31.0616 22.2579 32 19.1645 32 16C32 11.7565 30.3143 7.68687 27.3137 4.68629C24.3131 1.68571 20.2435 0 16 0Z" fill="black"/>
<path d="M25.676 14.858C25.286 14.8907 24.8947 14.8146 24.5454 14.638C24.1962 14.4615 23.9028 14.1914 23.698 13.858C22.626 12.03 24.574 8.38 24.976 7.658C25.052 7.54163 25.1558 7.44603 25.278 7.37987C25.4002 7.3137 25.537 7.27905 25.676 7.27905C25.815 7.27905 25.9518 7.3137 26.074 7.37987C26.1962 7.44603 26.3 7.54163 26.376 7.658C26.776 8.374 28.726 12.024 27.656 13.858C27.4508 14.1916 27.1571 14.4617 26.8075 14.6382C26.458 14.8148 26.0662 14.8909 25.676 14.858ZM25.676 9.894C25.144 11.162 24.78 12.524 25.076 13.042C25.108 13.1 25.196 13.252 25.676 13.252C26.156 13.252 26.234 13.1 26.276 13.042C26.572 12.524 26.2 11.162 25.676 9.894Z" fill="black"/>
</g>
<defs>
<clipPath id="clip0_174_451">
<rect width="32" height="32" fill="white"/>
</clipPath>
</defs>
</svg>
