<svg width="32" height="32" viewBox="0 0 32 32" fill="none" xmlns="http://www.w3.org/2000/svg">
<path d="M25.3334 10.6667C24.2223 10.6667 23.2779 10.2778 22.5001 9.50002C21.7223 8.72224 21.3334 7.7778 21.3334 6.66669C21.3334 5.55558 21.7223 4.61113 22.5001 3.83335C23.2779 3.05558 24.2223 2.66669 25.3334 2.66669C26.4445 2.66669 27.389 3.05558 28.1667 3.83335C28.9445 4.61113 29.3334 5.55558 29.3334 6.66669C29.3334 7.7778 28.9445 8.72224 28.1667 9.50002C27.389 10.2778 26.4445 10.6667 25.3334 10.6667ZM5.33341 26.6667C4.60008 26.6667 3.9723 26.4056 3.45008 25.8834C2.92786 25.3611 2.66675 24.7334 2.66675 24V8.00002C2.66675 7.26669 2.92786 6.63891 3.45008 6.11669C3.9723 5.59447 4.60008 5.33335 5.33341 5.33335H18.8001C18.7112 5.7778 18.6667 6.22224 18.6667 6.66669C18.6667 7.11113 18.7112 7.55558 18.8001 8.00002C18.9556 8.71113 19.2112 9.37224 19.5667 9.98335C19.9223 10.5945 20.3556 11.1334 20.8667 11.6L16.0001 14.6667L5.33341 8.00002V10.6667L16.0001 17.3334L23.0334 12.9334C23.4112 13.0667 23.789 13.1667 24.1667 13.2334C24.5445 13.3 24.9334 13.3334 25.3334 13.3334C26.0445 13.3334 26.7445 13.2222 27.4334 13C28.1223 12.7778 28.7556 12.4445 29.3334 12V24C29.3334 24.7334 29.0723 25.3611 28.5501 25.8834C28.0279 26.4056 27.4001 26.6667 26.6667 26.6667H5.33341Z" fill="#79747E"/>
</svg>
