<svg width="28" height="20" viewBox="0 0 28 20" fill="none" xmlns="http://www.w3.org/2000/svg">
<path d="M27.7126 9.22183C26.6813 7.69995 21.3751 0.106201 18.4844 0.106201C17.3907 0.106201 16.4094 0.978076 15.4626 1.82495C15.0063 2.2312 14.2407 2.91245 13.9657 2.91245C13.6532 2.91245 12.8407 2.19995 12.3532 1.77183C11.4282 0.962451 10.4751 0.124951 9.46568 0.124951H9.44693C6.55943 0.159326 1.25318 7.7062 0.218806 9.2187C0.0594311 9.45308 0.037556 9.7562 0.162556 10.0125C0.212556 10.1156 1.40943 12.5343 3.68443 14.9781C6.74381 18.2656 10.3001 20.0031 13.9657 20.0031C15.7032 20.0031 17.4157 19.6187 19.0532 18.8624C19.4438 18.6812 19.6188 18.2156 19.4376 17.8218C19.2563 17.4281 18.7938 17.2562 18.4032 17.4343C16.9688 18.0968 15.4751 18.4312 13.9626 18.4312C7.08756 18.4312 2.75943 11.475 1.77193 9.71558C4.50631 5.79683 8.13131 1.71245 9.45631 1.69683H9.45943C9.88443 1.69683 10.7157 2.42495 11.3219 2.9562C12.2157 3.74058 13.0626 4.4812 13.9594 4.4812C14.8251 4.4812 15.6313 3.76245 16.4907 2.99995C17.1532 2.40933 17.9782 1.67495 18.4813 1.67495C19.8032 1.67495 23.4251 5.77495 26.1532 9.71245C25.6376 10.6375 24.2032 13.0031 21.9657 15.0281C21.6438 15.3187 21.6188 15.8156 21.9063 16.1375C22.1938 16.4593 22.6876 16.4875 23.0063 16.1968C26.0751 13.4187 27.6969 10.1468 27.7626 10.0093C27.8938 9.75933 27.8719 9.4562 27.7126 9.22183ZM22.7751 10.3781C22.9532 9.9812 22.7782 9.5187 22.3844 9.33745C22.3751 9.33433 21.5907 8.97495 21.0344 8.65933C18.7032 7.33745 16.9719 8.0562 15.7063 8.5812C15.1469 8.81245 14.6657 9.01245 14.2438 9.01245C13.8032 9.01245 13.4032 8.81245 12.8938 8.56245C11.7751 8.0062 10.2376 7.24683 7.56568 8.6562C7.00006 8.9562 6.13131 9.32183 6.12193 9.32495C5.72506 9.4937 5.53756 9.95308 5.70318 10.3531C5.82818 10.6531 6.11881 10.8343 6.42193 10.8343C6.52193 10.8343 6.62506 10.8156 6.72193 10.775C6.75943 10.7593 7.66256 10.3781 8.28756 10.0468C10.2563 9.0062 11.1594 9.45308 12.2032 9.97183C12.8126 10.2718 13.4407 10.5843 14.2407 10.5843C14.9751 10.5843 15.6469 10.3031 16.3001 10.0343C17.4813 9.5437 18.5938 9.0812 20.2657 10.0281C20.8813 10.375 21.7032 10.75 21.7376 10.7687C22.1407 10.95 22.6001 10.775 22.7751 10.3781Z" fill="black"/>
</svg>
