<svg width="32" height="32" viewBox="0 0 32 32" fill="none" xmlns="http://www.w3.org/2000/svg">
<path d="M16.0001 29.3334C15.689 29.3334 15.4223 29.2445 15.2001 29.0667C14.9779 28.8889 14.8112 28.6556 14.7001 28.3667C14.2779 27.1222 13.7445 25.9556 13.1001 24.8667C12.4779 23.7778 11.6001 22.5 10.4667 21.0334C9.33342 19.5667 8.41119 18.1667 7.70008 16.8334C7.01119 15.5 6.66675 13.8889 6.66675 12C6.66675 9.40002 7.56675 7.20002 9.36675 5.40002C11.189 3.5778 13.4001 2.66669 16.0001 2.66669C18.6001 2.66669 20.8001 3.5778 22.6001 5.40002C24.4223 7.20002 25.3334 9.40002 25.3334 12C25.3334 14.0222 24.9445 15.7111 24.1667 17.0667C23.4112 18.4 22.5334 19.7222 21.5334 21.0334C20.3334 22.6334 19.4223 23.9667 18.8001 25.0334C18.2001 26.0778 17.7001 27.1889 17.3001 28.3667C17.189 28.6778 17.0112 28.9222 16.7667 29.1C16.5445 29.2556 16.289 29.3334 16.0001 29.3334ZM16.0001 24.5667C16.3779 23.8111 16.8001 23.0667 17.2667 22.3334C17.7556 21.6 18.4667 20.6222 19.4001 19.4C20.3556 18.1556 21.1334 17.0111 21.7334 15.9667C22.3556 14.9 22.6667 13.5778 22.6667 12C22.6667 10.1556 22.0112 8.58891 20.7001 7.30002C19.4112 5.98891 17.8445 5.33335 16.0001 5.33335C14.1556 5.33335 12.5779 5.98891 11.2667 7.30002C9.97786 8.58891 9.33342 10.1556 9.33342 12C9.33342 13.5778 9.63342 14.9 10.2334 15.9667C10.8556 17.0111 11.6445 18.1556 12.6001 19.4C13.5334 20.6222 14.2334 21.6 14.7001 22.3334C15.189 23.0667 15.6223 23.8111 16.0001 24.5667ZM16.0001 15.3334C16.9334 15.3334 17.7223 15.0111 18.3667 14.3667C19.0112 13.7222 19.3334 12.9334 19.3334 12C19.3334 11.0667 19.0112 10.2778 18.3667 9.63335C17.7223 8.98891 16.9334 8.66669 16.0001 8.66669C15.0667 8.66669 14.2779 8.98891 13.6334 9.63335C12.989 10.2778 12.6667 11.0667 12.6667 12C12.6667 12.9334 12.989 13.7222 13.6334 14.3667C14.2779 15.0111 15.0667 15.3334 16.0001 15.3334Z" fill="#79747E"/>
</svg>
