<svg width="44" height="44" viewBox="0 0 44 44" fill="none" xmlns="http://www.w3.org/2000/svg">
<path d="M16.9297 24.1426C15.6986 21.8273 14.9518 19.2985 14.6892 16.5564C14.4267 13.8142 14.7632 11.0744 15.6987 8.33707C15.8089 7.97642 16.021 7.71264 16.335 7.54572C16.6489 7.37879 16.9862 7.35046 17.3468 7.46072L21.4354 8.76001C21.766 8.86108 22.0167 9.04866 22.1876 9.32273C22.3585 9.5968 22.4183 9.89851 22.3669 10.2279L21.5922 15.019C21.5579 15.2386 21.4832 15.4294 21.3679 15.5913C21.2527 15.7533 21.097 15.8864 20.9008 15.9907L17.5456 17.7747C17.7065 18.6455 17.927 19.5098 18.207 20.3677C18.4869 21.2256 18.846 22.0666 19.2842 22.8906C19.7224 23.7147 20.2188 24.4827 20.7734 25.1945C21.3281 25.9063 21.9214 26.5724 22.5533 27.1928L25.9085 25.4088C26.1047 25.3045 26.3021 25.2498 26.5008 25.2449C26.6995 25.2399 26.8995 25.2846 27.1006 25.379L31.5059 27.4159C31.8077 27.5575 32.0244 27.7757 32.1561 28.0707C32.2877 28.3656 32.303 28.6784 32.2019 29.0089L30.9928 33.1251C30.8826 33.4857 30.6705 33.7495 30.3565 33.9164C30.0426 34.0833 29.7053 34.1117 29.3446 34.0014C26.5626 33.2659 24.1056 32.0177 21.9739 30.2568C19.8421 28.4959 18.1607 26.4578 16.9297 24.1426Z" fill="#79747E"/>
</svg>
