<svg width="32" height="32" viewBox="0 0 32 32" fill="none" xmlns="http://www.w3.org/2000/svg">
<path d="M28.0001 10.6675C28.0001 8.07884 26.8856 6.07269 25.2002 4.74479C23.55 3.44444 21.4105 2.83367 19.3334 2.83368C17.2562 2.83369 15.1169 3.44449 13.4665 4.74479C11.7812 6.07265 10.6667 8.07871 10.6667 10.6672V16H5.3333C4.59693 16 3.99997 16.597 3.99997 17.3334C3.99997 18.0698 4.59693 18.6667 5.3333 18.6667H10.6667V23.3338C10.6667 23.9848 10.3652 24.5084 9.76251 24.989C9.13029 25.4931 8.25193 25.8703 7.36183 26.1412C6.53151 26.3939 5.78399 26.5275 5.35941 26.6034L5.3413 26.6066C5.1027 26.6492 4.86025 26.6926 4.64722 26.8086C4.5971 26.8358 4.39825 26.944 4.22566 27.1678C3.90234 27.5867 3.85881 28.1747 4.11795 28.6368C4.33443 29.023 4.66835 29.1723 4.73599 29.2026L4.73869 29.2038C4.97945 29.3116 5.2319 29.3296 5.49194 29.332C5.63847 29.3334 5.78503 29.3334 5.93158 29.3334H5.99247L26.6665 29.3339C28.543 29.3331 28.3698 26.6667 26.6665 26.6668C25.333 26.667 11.8862 26.6668 11.8862 26.6668C12.7113 25.8586 13.3334 24.76 13.3334 23.3338V18.6667H18.6666C19.403 18.6667 20 18.0698 20 17.3334C20 16.597 19.403 16 18.6666 16H13.3334V10.6672C13.3334 8.92228 14.0522 7.67828 15.1169 6.83941C16.2165 5.97297 17.744 5.50036 19.3334 5.50035C20.9229 5.50035 22.4502 5.97293 23.5498 6.83939C24.6145 7.67827 25.3334 8.92233 25.3334 10.6675C25.3334 11.4038 25.9304 12.0008 26.6668 12.0008C27.403 12.0008 28.0001 11.4038 28.0001 10.6675Z" fill="#0F0F0F"/>
</svg>
