<svg width="32" height="32" viewBox="0 0 32 32" fill="none" xmlns="http://www.w3.org/2000/svg">
<path d="M24.6667 12.6666V11.5999C24.6667 10.1064 24.6667 9.35971 24.376 8.78928C24.1204 8.28751 23.7124 7.87956 23.2107 7.62391C22.6403 7.33325 21.8935 7.33325 20.4 7.33325H10.2667C8.77319 7.33325 8.02645 7.33325 7.45603 7.62391C6.95425 7.87956 6.54631 8.28751 6.29065 8.78928C6 9.35971 6 10.1064 6 11.5999V16.3999C6 17.8934 6 18.6402 6.29065 19.2106C6.54631 19.7123 6.95425 20.1203 7.45603 20.3759C8.02645 20.6666 8.77319 20.6666 10.2667 20.6666H18" stroke="#222222" stroke-width="2" stroke-linecap="round"/>
<path d="M10 16.6667H15.3333" stroke="#33363F" stroke-width="2" stroke-linecap="round"/>
<path d="M10 11.3333H19.3333" stroke="#33363F" stroke-width="2" stroke-linecap="round"/>
<path d="M23.3333 20.6666C24.8061 20.6666 26 19.4727 26 17.9999C26 16.5272 24.8061 15.3333 23.3333 15.3333C21.8606 15.3333 20.6667 16.5272 20.6667 17.9999C20.6667 19.4727 21.8606 20.6666 23.3333 20.6666Z" stroke="#222222" stroke-width="2"/>
<path d="M26 24.6666C26 24.6666 25.3333 23.3333 23.3333 23.3333C21.3333 23.3333 20.6667 24.6666 20.6667 24.6666" stroke="#222222" stroke-width="2" stroke-linecap="round"/>
</svg>
