<svg width="33" height="32" viewBox="0 0 33 32" fill="none" xmlns="http://www.w3.org/2000/svg">
<path d="M6.5293 9.33331H9.8335C10.5699 9.33331 11.1668 9.93027 11.1668 10.6666C11.1668 11.403 10.5699 12 9.8335 12H4.50016C3.0274 12 1.8335 10.8061 1.8335 9.33331V3.99998C1.8335 3.2636 2.43046 2.66665 3.16683 2.66665C3.9032 2.66665 4.50016 3.2636 4.50016 3.99998V7.56718C6.19287 5.15838 8.58099 3.30233 11.3649 2.26173C14.7179 1.00837 18.4135 1.02454 21.7555 2.30719C25.0975 3.58983 27.855 6.05041 29.5084 9.22527C31.1619 12.4002 31.5972 16.0701 30.7323 19.5437C29.8674 23.0173 27.762 26.0546 24.8128 28.0834C21.8636 30.1122 18.2743 30.9925 14.7211 30.5584C11.1679 30.1241 7.89619 28.4054 5.52235 25.7261C3.4444 23.3808 2.18007 20.4412 1.89516 17.3437C1.82771 16.6105 2.43638 16.0117 3.17276 16.0112C3.90914 16.0105 4.50484 16.6088 4.58718 17.3406C4.862 19.7832 5.88299 22.0941 7.52719 23.95C9.4675 26.14 12.1417 27.5448 15.046 27.8996C17.9503 28.2545 20.8842 27.535 23.2947 25.8766C25.7054 24.2184 27.4262 21.7357 28.1331 18.8965C28.84 16.0573 28.4843 13.0576 27.1328 10.4625C25.7812 7.86746 23.5274 5.85625 20.7958 4.80784C18.0642 3.75944 15.0434 3.74622 12.3027 4.77068C9.98027 5.63879 7.99482 7.20123 6.60674 9.2297C6.58224 9.2655 6.55639 9.30004 6.5293 9.33331Z" fill="#0F0F0F"/>
</svg>
