<svg xmlns="http://www.w3.org/2000/svg" viewBox="0 0 17.66 26.67"><defs><style>.cls-1{fill:#79747e;}</style></defs><title>Ресурс 1</title><g id="Слой_2" data-name="Слой 2"><g id="Слой_1-2" data-name="Слой 1"><path class="cls-1" d="M2.33,16.75A20.09,20.09,0,0,1,.09,9.16,19.26,19.26,0,0,1,1.1.94,1.29,1.29,0,0,1,1.73.15a1.26,1.26,0,0,1,1-.08l4.09,1.3a1.26,1.26,0,0,1,.75.56,1.18,1.18,0,0,1,.18.9L7,7.62a1.42,1.42,0,0,1-.23.58,1.39,1.39,0,0,1-.46.4L2.94,10.38A20.07,20.07,0,0,0,3.6,13,15.9,15.9,0,0,0,4.68,15.5a16.48,16.48,0,0,0,1.49,2.3A21.33,21.33,0,0,0,8,19.8L11.31,18a1.27,1.27,0,0,1,.59-.16,1.3,1.3,0,0,1,.6.13l4.4,2a1.27,1.27,0,0,1,.65.66,1.29,1.29,0,0,1,.05.93l-1.21,4.12a1.3,1.3,0,0,1-1.65.88,19.16,19.16,0,0,1-7.37-3.75A20.22,20.22,0,0,1,2.33,16.75Z"/></g></g></svg>