<svg width="30" height="30" viewBox="0 0 30 30" fill="none" xmlns="http://www.w3.org/2000/svg">
<path d="M29.6668 15C29.6668 23.1001 23.1003 29.6666 15.0002 29.6666C6.89999 29.6666 0.333496 23.1001 0.333496 15C0.333496 6.89981 6.89999 0.333313 15.0002 0.333313C23.1003 0.333313 29.6668 6.89981 29.6668 15ZM3.00927 15C3.00927 21.6224 8.37778 26.9909 15.0002 26.9909C21.6226 26.9909 26.9911 21.6224 26.9911 15C26.9911 8.37759 21.6226 3.00909 15.0002 3.00909C8.37778 3.00909 3.00927 8.37759 3.00927 15Z" fill="#0F0F0F"/>
<path d="M14.9998 5.66669C14.2634 5.66669 13.6665 6.26363 13.6665 7.00002V15.6223C13.6665 15.6223 13.6665 15.9699 13.8354 16.2314C13.9485 16.4531 14.1248 16.6458 14.3564 16.7795L20.5161 20.3359C21.1538 20.704 21.9693 20.4855 22.3374 19.8478C22.7056 19.21 22.4872 18.3946 21.8494 18.0264L16.3332 14.8416V7.00002C16.3332 6.26365 15.7362 5.66669 14.9998 5.66669Z" fill="#0F0F0F"/>
</svg>
