<svg width="32" height="32" viewBox="0 0 32 32" fill="none" xmlns="http://www.w3.org/2000/svg">
<g clip-path="url(#clip0_155_588)">
<path d="M27.2 0H4.8C2.14903 0 0 2.14903 0 4.8V27.2C0 29.851 2.14903 32 4.8 32H27.2C29.851 32 32 29.851 32 27.2V4.8C32 2.14903 29.851 0 27.2 0Z" fill="#25D366"/>
<path d="M7.6876 24.5625L8.5626 20.5C7.43797 18.7261 6.99924 16.6029 7.32875 14.5286C7.65825 12.4542 8.73332 10.5714 10.3523 9.23341C11.9712 7.89537 14.0228 7.19406 16.122 7.26104C18.2213 7.32803 20.2239 8.15871 21.7543 9.59724C23.2846 11.0358 24.2375 12.9833 24.4341 15.0744C24.6307 17.1655 24.0575 19.2564 22.822 20.955C21.5866 22.6535 19.7738 23.8429 17.7239 24.3C15.6739 24.757 13.5276 24.4503 11.6876 23.4375L7.6876 24.5625Z" fill="#25D366" stroke="white" stroke-width="2"/>
<path d="M19.25 17.0625C19.0625 16.9375 18.875 16.875 18.6875 17.125L17.9375 18.125C17.75 18.25 17.625 18.3125 17.375 18.1875C16.4375 17.6875 15.125 17.125 14 15.25C13.9375 15 14.0625 14.875 14.1875 14.75L14.75 13.875C14.875 13.75 14.8125 13.625 14.75 13.5L14 11.6875C13.8125 11.1875 13.625 11.25 13.4375 11.25H12.9375C12.8125 11.25 12.5625 11.3125 12.3125 11.5625C10.9375 12.9375 11.5 14.875 12.5 16.125C12.6875 16.375 13.9375 18.625 16.625 19.8125C18.625 20.6875 19.0625 20.5625 19.625 20.4375C20.3125 20.375 21 19.8125 21.3125 19.25C21.375 19.0625 21.6875 18.25 21.4375 18.125" fill="white"/>
</g>
<defs>
<clipPath id="clip0_155_588">
<rect width="32" height="32" rx="10" fill="white"/>
</clipPath>
</defs>
</svg>
