<svg width="64" height="66" viewBox="0 0 64 66" fill="none" xmlns="http://www.w3.org/2000/svg">
<g clip-path="url(#clip0_29_253)">
<path d="M31.5471 2.35107C23.6489 2.54057 16.1428 5.83152 10.6521 11.5122C5.6427 16.8729 2.61802 23.7861 2.08049 31.1034C1.96259 33.8358 1.87937 43.1356 8.17632 51.6864C16.6439 63.1776 29.6955 63.9127 31.5471 63.989C33.3988 64.0653 46.2146 63.5729 54.9249 52.4423C61.9153 43.5101 61.6795 33.4821 61.5547 30.9439C60.9255 23.8473 57.9821 17.154 53.1773 11.8936C50.3855 8.94722 47.0352 6.58607 43.3215 4.94775C39.6079 3.30943 35.6054 2.42672 31.5471 2.35107Z" stroke="white" stroke-miterlimit="10"/>
<path d="M31.5263 0.34668C23.17 0.546173 15.23 4.03519 9.43155 10.0556C4.14936 15.7479 0.968805 23.073 0.416099 30.8189C0.24966 33.7108 0.159506 43.5584 6.824 52.6224C15.7701 64.7932 29.5637 65.5769 31.5263 65.6532C33.4889 65.7295 47.0398 65.2232 56.2494 53.3991C63.6421 43.9398 63.3994 33.2877 63.2607 30.6524C62.5983 23.1331 59.4872 16.0388 54.4047 10.4578C51.4535 7.33805 47.9105 4.83719 43.9825 3.1012C40.0545 1.3652 35.8201 0.428818 31.5263 0.34668Z" stroke="white" stroke-miterlimit="10"/>
<path d="M23.3292 28.1419C24.121 26.5116 25.3658 25.1441 26.9146 24.2028C28.3964 23.3128 30.1038 22.8697 31.8315 22.9268C33.7288 22.8292 35.6075 23.342 37.1922 24.39C38.5854 25.3273 39.6996 26.6236 40.4169 28.1419C39.5269 29.5907 38.3201 30.8189 36.887 31.7342C35.3868 32.6888 33.674 33.2581 31.9008 33.3916C29.9981 33.3362 28.1506 32.7396 26.5748 31.6717C25.2316 30.7653 24.1199 29.5562 23.3292 28.1419Z" stroke="white" stroke-miterlimit="10"/>
<path d="M40.4169 28.1419C41.2088 26.5116 42.4536 25.1441 44.0023 24.2028C45.4842 23.3128 47.1916 22.8697 48.9192 22.9268C50.8166 22.8292 52.6953 23.342 54.2799 24.39C55.6753 25.325 56.79 26.6219 57.5047 28.1419C56.6147 29.5907 55.4078 30.8189 53.9748 31.7342C52.4668 32.6939 50.7437 33.2635 48.9608 33.3916C47.0581 33.3362 45.2106 32.7396 43.6348 31.6717C42.3017 30.762 41.1998 29.5532 40.4169 28.1419Z" stroke="white" stroke-miterlimit="10"/>
<path d="M6.17905 28.1419C6.9744 26.5118 8.22129 25.1446 9.77136 24.2028C11.2508 23.313 12.9559 22.8698 14.6813 22.9268C16.5808 22.8292 18.4618 23.342 20.049 24.3901C21.4408 25.327 22.5528 26.6235 23.2668 28.1419C22.3821 29.5925 21.1769 30.8213 19.7438 31.7342C18.2334 32.6942 16.5081 33.2638 14.7229 33.3916C12.8222 33.3368 10.9768 32.7401 9.40381 31.6718C8.0694 30.7615 6.96532 29.5529 6.17905 28.1419Z" stroke="white" stroke-miterlimit="10"/>
<path d="M23.3084 38.2325C24.1004 36.5983 25.3479 35.228 26.9007 34.2865C28.3788 33.3942 30.0853 32.9532 31.8107 33.0174C33.71 32.9123 35.5925 33.4231 37.1783 34.4737C38.5695 35.4144 39.6812 36.7129 40.3961 38.2325C39.5063 39.6815 38.2994 40.9097 36.8662 41.8248C35.3586 42.7842 33.635 43.3516 31.8523 43.4753C29.9526 43.4206 28.1077 42.8265 26.5332 41.7624C25.2016 40.8488 24.0982 39.641 23.3084 38.2325Z" stroke="white" stroke-miterlimit="10"/>
<path d="M40.3961 38.2326C41.1907 36.6002 42.4376 35.2305 43.9884 34.2866C45.4665 33.3944 47.1731 32.9533 48.8984 33.0175C50.7978 32.912 52.6805 33.4228 54.2661 34.4739C55.6572 35.4145 56.7689 36.713 57.4839 38.2326C56.5972 39.6817 55.3925 40.9102 53.9609 41.8249C52.4503 42.7836 50.7248 43.3508 48.94 43.4754C47.0403 43.4207 45.1955 42.8266 43.6209 41.7625C42.2893 40.849 41.1859 39.6411 40.3961 38.2326Z" stroke="white" stroke-miterlimit="10"/>
<path d="M6.16518 38.2325C6.95625 36.5999 8.20104 35.2299 9.75055 34.2865C11.2311 33.3941 12.9399 32.953 14.6674 33.0174C16.5646 32.9124 18.4449 33.4232 20.0282 34.4737C21.4208 35.4147 22.5346 36.713 23.2529 38.2325C22.361 39.6798 21.1545 40.9077 19.723 41.8248C18.2149 42.7832 16.4916 43.3504 14.709 43.4753C12.8073 43.42 10.9604 42.826 9.383 41.7624C8.05312 40.849 6.95194 39.641 6.16518 38.2325Z" stroke="white" stroke-miterlimit="10"/>
<path d="M23.1974 48.5444C23.9885 46.9119 25.2333 45.5419 26.7828 44.5984C28.2634 43.706 29.9722 43.265 31.6997 43.3293C33.5979 43.2243 35.4789 43.7378 37.0604 44.7926C38.4537 45.7299 39.5678 47.0262 40.2852 48.5444C39.3908 49.9842 38.1845 51.2048 36.7553 52.1159C35.2483 53.0767 33.5244 53.6442 31.7413 53.7664C29.839 53.7146 27.9911 53.1203 26.4153 52.0535C25.0878 51.146 23.9868 49.9454 23.1974 48.5444Z" stroke="white" stroke-miterlimit="10"/>
<path d="M40.2852 48.5444C41.0762 46.9119 42.321 45.5419 43.8706 44.5984C45.3511 43.706 47.0599 43.265 48.7874 43.3293C50.6856 43.2243 52.5666 43.7378 54.1482 44.7926C55.5414 45.7299 56.6556 47.0262 57.3729 48.5444C56.481 49.9918 55.2745 51.2196 53.843 52.1367C52.3364 53.0983 50.6123 53.6659 48.8291 53.7873C46.9268 53.7354 45.0789 53.1411 43.503 52.0743C42.1731 51.1609 41.0719 49.9529 40.2852 48.5444Z" stroke="white" stroke-miterlimit="10"/>
<path d="M6.1305 48.4892C6.9012 46.8761 8.11923 45.5185 9.63959 44.5779C11.1348 43.7147 12.8372 43.276 14.5634 43.3088C16.4637 43.2038 18.347 43.7172 19.9311 44.7721C21.3207 45.7166 22.428 47.0205 23.135 48.5447C22.2484 49.9939 21.0436 51.2223 19.6121 52.137C18.0929 53.096 16.3565 53.6565 14.5634 53.7667C12.643 53.8473 10.7569 53.2399 9.2443 52.0538C7.94092 51.1266 6.8742 49.9054 6.1305 48.4892Z" stroke="white" stroke-miterlimit="10"/>
<path d="M23.1974 58.7389C23.9894 57.1051 25.2338 55.7331 26.7828 54.786C28.2663 53.9006 29.973 53.4601 31.6997 53.5169C33.5974 53.4159 35.4772 53.929 37.0604 54.9802C38.4537 55.9175 39.5678 57.2137 40.2852 58.732C39.3941 60.1819 38.1876 61.4121 36.7553 62.3312C35.2469 63.2902 33.5241 63.8597 31.7413 63.9887C29.8386 63.9332 27.9911 63.3367 26.4153 62.2688C25.0834 61.3577 23.9817 60.1492 23.1974 58.7389Z" stroke="white" stroke-miterlimit="10"/>
<path d="M23.3569 17.8089C24.1491 16.1788 25.3938 14.8114 26.9423 13.8698C28.4242 12.9798 30.1316 12.5367 31.8592 12.5938C33.7566 12.4962 35.6353 13.009 37.2199 14.057C38.6125 14.998 39.7264 16.2963 40.4447 17.8158C39.5528 19.2631 38.3463 20.491 36.9148 21.4081C35.406 22.364 33.6827 22.9289 31.9008 23.0517C29.9991 22.9964 28.1522 22.4024 26.5748 21.3387C25.2449 20.4253 24.1437 19.2174 23.3569 17.8089Z" stroke="white" stroke-miterlimit="10"/>
<path d="M40.4447 17.8089C41.2377 16.1773 42.4852 14.8094 44.037 13.8698C45.5164 12.98 47.2215 12.5368 48.9469 12.5938C50.8465 12.4962 52.7274 13.009 54.3146 14.057C55.7151 14.992 56.8365 16.2884 57.5602 17.8089C56.6704 19.2578 55.4634 20.4861 54.0303 21.4012C52.5221 22.3595 50.7988 22.9268 49.0163 23.0517C47.1146 22.9964 45.2676 22.4024 43.6902 21.3388C42.3503 20.4286 41.2394 19.2204 40.4447 17.8089Z" stroke="white" stroke-miterlimit="10"/>
<path d="M6.24146 17.8089C7.02775 16.1837 8.26209 14.817 9.7991 13.8698C11.2785 12.98 12.9836 12.5369 14.709 12.5938C16.6196 12.4857 18.5141 12.9964 20.1114 14.0502C21.5026 14.9908 22.6142 16.2893 23.3292 17.8089C22.4425 19.258 21.2378 20.4865 19.8062 21.4012C18.2957 22.3599 16.5701 22.9271 14.7853 23.0517C12.8858 22.9963 11.0411 22.4022 9.46622 21.3388C8.13463 20.4252 7.03122 19.2174 6.24146 17.8089Z" stroke="white" stroke-miterlimit="10"/>
<path d="M23.3569 7.57964C24.148 5.94708 25.3928 4.57708 26.9423 3.63365C28.4243 2.74457 30.1321 2.30378 31.8592 2.36455C33.7569 2.26355 35.6367 2.77666 37.2199 3.82783C38.6132 4.76512 39.7274 6.06138 40.4447 7.57964C39.5835 9.05077 38.3706 10.2851 36.9148 11.172C35.3833 12.0766 33.6379 12.5554 31.8592 12.5589C29.9909 12.6121 28.1497 12.1022 26.5748 11.0957C25.2267 10.2092 24.1207 9.00081 23.3569 7.57964Z" stroke="white" stroke-miterlimit="10"/>
<path d="M6.60902 17.8157C8.35862 17.8524 10.0835 17.3984 11.5883 16.505C13.0477 15.6288 14.2545 14.3886 15.0905 12.9058C15.8608 14.2917 16.9613 15.4661 18.2944 16.3247C19.6684 17.2079 21.2533 17.7082 22.8854 17.7741C21.306 17.9733 19.7826 18.4874 18.4054 19.2859C17.031 20.0897 15.8271 21.1545 14.8616 22.4205C14.0584 21.3295 13.0675 20.3902 11.9351 19.6465C10.3449 18.592 8.51146 17.9618 6.60902 17.8157Z" stroke="white" stroke-miterlimit="10"/>
<path d="M23.5234 17.6769C25.2757 17.7183 27.0041 17.264 28.5096 16.3662C29.955 15.4868 31.1493 14.2495 31.9771 12.7739C32.7537 14.1575 33.8558 15.331 35.188 16.1929C36.6897 17.1567 38.4384 17.6649 40.2228 17.6561C38.4848 17.7709 36.796 18.2808 35.2851 19.1472C33.9048 19.9428 32.6995 21.0089 31.7413 22.2818C30.9365 21.1922 29.9458 20.2532 28.8148 19.5078C27.2348 18.4585 25.4139 17.8285 23.5234 17.6769Z" stroke="white" stroke-miterlimit="10"/>
<path d="M40.3337 17.6773C40.3337 17.3444 42.9829 17.8853 45.4032 16.5885C46.8405 15.7616 47.9937 14.5189 48.7111 13.0239C49.5475 14.4144 50.7119 15.5787 52.1023 16.4151C53.6455 17.3362 55.4166 17.8048 57.2134 17.7674C55.44 17.9082 53.7236 18.4589 52.1994 19.3763C50.8482 20.1794 49.6696 21.2424 48.732 22.504C47.8971 21.4019 46.8676 20.4618 45.6944 19.73C43.0453 18.031 40.306 18.031 40.3337 17.6773Z" stroke="white" stroke-miterlimit="10"/>
<path d="M6.43564 28.2043C8.18737 28.2404 9.91436 27.7865 11.4219 26.8936C12.8673 26.0141 14.0616 24.7769 14.8894 23.3013C15.6535 24.6917 16.7553 25.8675 18.0933 26.7202C19.6261 27.681 21.4101 28.1638 23.2182 28.1072C21.4444 28.2481 19.7255 28.7886 18.1904 29.6884C16.8156 30.4915 15.6116 31.5565 14.6466 32.823C13.8389 31.7336 12.8459 30.7946 11.7131 30.049C10.1385 28.9973 8.32259 28.3626 6.43564 28.2043Z" stroke="white" stroke-miterlimit="10"/>
<path d="M23.3569 28.0656C25.1091 28.1055 26.8371 27.6512 28.3432 26.7549C29.787 25.8735 30.9809 24.6367 31.8107 23.1626C32.5835 24.5467 33.6835 25.7205 35.0146 26.5815C36.5143 27.5441 38.2605 28.0522 40.0425 28.0448C38.3048 28.1612 36.6164 28.6711 35.1048 29.5358C33.7274 30.3354 32.5228 31.4009 31.561 32.6704C30.7598 31.5776 29.7685 30.638 28.6344 29.8964C27.0594 28.8478 25.2431 28.2177 23.3569 28.0656Z" stroke="white" stroke-miterlimit="10"/>
<path d="M40.1603 28.0655C40.1603 27.7326 42.8164 28.2735 45.2298 26.9836C46.6702 26.1553 47.8259 24.9101 48.5447 23.4121C49.3842 24.8025 50.5507 25.9667 51.9428 26.8033C53.48 27.7363 55.249 28.217 57.047 28.1903C55.2693 28.3173 53.5456 28.8562 52.0122 29.7645C50.6617 30.5686 49.4833 31.6315 48.5447 32.8922C47.7098 31.7901 46.6804 30.8499 45.5072 30.1182C42.8789 28.433 40.1326 28.433 40.1603 28.0655Z" stroke="white" stroke-miterlimit="10"/>
<path d="M6.56741 38.4059C8.31975 38.4473 10.0482 37.993 11.5536 37.0952C12.9991 36.2158 14.1933 34.9785 15.0211 33.5029C15.7903 34.892 16.8939 36.0671 18.232 36.9219C19.6523 37.8303 21.2967 38.3272 22.9825 38.3574C21.3394 38.5299 19.7514 39.0475 18.3222 39.8762C16.9575 40.6767 15.763 41.7369 14.8061 42.9969C14.0003 41.9058 13.0071 40.9665 11.8726 40.2229C10.2881 39.1747 8.46184 38.5492 6.56741 38.4059Z" stroke="white" stroke-miterlimit="10"/>
<path d="M23.4887 38.2742C25.2404 38.3103 26.9674 37.8564 28.4749 36.9635C29.9226 36.0839 31.1174 34.8437 31.9424 33.3643C32.7253 34.7425 33.8352 35.9071 35.1741 36.7555C36.6782 37.7293 38.4309 38.2494 40.2228 38.2534C38.4851 38.3698 36.7967 38.8797 35.2851 39.7444C33.9081 40.5419 32.7054 41.6078 31.7482 42.879C30.9423 41.788 29.9491 40.8488 28.8148 40.105C27.2246 39.0505 25.3911 38.4203 23.4887 38.2742Z" stroke="white" stroke-miterlimit="10"/>
<path d="M40.2921 38.274C40.2921 37.9411 42.9482 38.482 45.3616 37.1852C46.7989 36.3583 47.9521 35.1156 48.6695 33.6206C49.5131 35.0078 50.6788 36.171 52.0677 37.0118C53.6062 37.9417 55.3743 38.4221 57.1718 38.3988C55.3994 38.5396 53.6835 39.0879 52.1578 40.0008C50.8198 40.8085 49.6535 41.8712 48.725 43.1284C47.8864 42.0297 46.8576 41.0902 45.6875 40.3544C42.9967 38.6415 40.2713 38.6138 40.2921 38.274Z" stroke="white" stroke-miterlimit="10"/>
<path d="M6.4079 48.5999C8.16074 48.6377 9.88878 48.181 11.3941 47.2823C12.8434 46.4076 14.0387 45.1692 14.8616 43.6899C15.6364 45.0749 16.7389 46.2488 18.0725 47.1089C19.5011 48.016 21.1518 48.5127 22.8438 48.5444C21.1887 48.641 19.5862 49.1616 18.1904 50.0562C16.8653 50.9031 15.7563 52.0477 14.9518 53.3989C14.0944 52.1785 12.9912 51.1509 11.7131 50.3822C10.0595 49.4895 8.26511 48.8867 6.4079 48.5999Z" stroke="white" stroke-miterlimit="10"/>
<path d="M23.3292 48.4615C25.0803 48.4997 26.8072 48.0482 28.3154 47.1577C29.7609 46.2783 30.9551 45.041 31.7829 43.5654C32.5558 44.9496 33.6558 46.1234 34.9869 46.9844C36.4884 47.9429 38.2333 48.4508 40.0147 48.4476C38.2892 48.5654 36.6129 49.0729 35.1117 49.9317C33.7314 50.7273 32.5261 51.7935 31.5679 53.0663C30.7602 51.9769 29.7672 51.038 28.6344 50.2923C27.0503 49.2411 25.2245 48.611 23.3292 48.4615Z" stroke="white" stroke-miterlimit="10"/>
<path d="M40.1395 48.4615C40.1395 48.1286 42.7887 48.6695 45.2021 47.3727C46.6539 46.5534 47.8203 45.3095 48.5447 43.8081C49.3864 45.1968 50.5524 46.3605 51.9428 47.1993C53.4821 48.1332 55.2537 48.6139 57.0539 48.5863C55.274 48.713 53.5479 49.2519 52.0122 50.1605C50.6617 50.9646 49.4833 52.0275 48.5447 53.2882C47.7098 52.1861 46.6804 51.2459 45.5072 50.5142C42.8511 48.8359 40.1118 48.8013 40.1395 48.4615Z" stroke="white" stroke-miterlimit="10"/>
<path d="M23.3292 58.8708C25.0814 58.9107 26.8094 58.4564 28.3154 57.5601C29.7609 56.6806 30.9551 55.4434 31.7829 53.9678C32.5558 55.3519 33.6558 56.5257 34.9869 57.3867C36.4869 58.3485 38.2328 58.8566 40.0147 58.85C38.2892 58.9678 36.6129 59.4752 35.1117 60.3341C33.7314 61.1297 32.5261 62.1959 31.5679 63.4687C30.7602 62.3793 29.7672 61.4403 28.6344 60.6947C27.0497 59.6459 25.2238 59.0182 23.3292 58.8708Z" stroke="white" stroke-miterlimit="10"/>
<path d="M31.769 22.2749C30.9111 20.9777 30.4309 19.4674 30.3821 17.9128C30.3561 16.8382 30.5398 15.7687 30.923 14.7644C31.0667 14.5123 31.2414 14.2794 31.4431 14.0709C31.672 13.8489 31.8037 13.7172 31.9702 13.6894C32.3238 13.627 32.7469 14.0709 33.052 14.7366C33.3225 15.9049 33.3812 17.1122 33.2254 18.3012C33.0324 19.7153 32.5356 21.0709 31.769 22.2749Z" stroke="white" stroke-miterlimit="10"/>
<path d="M23.5789 7.62821C25.3174 7.65633 27.0295 7.2001 28.5235 6.31057C29.9679 5.42991 31.1619 4.19294 31.991 2.71826C32.7736 4.10642 33.8858 5.28061 35.2296 6.1372C36.7278 7.10624 38.4732 7.62383 40.2574 7.62821C38.5196 7.74368 36.831 8.25359 35.3198 9.11923C33.9424 9.91882 32.7377 10.9844 31.776 12.2538C30.9729 11.1627 29.9819 10.2234 28.8494 9.47985C27.2774 8.42682 25.464 7.78974 23.5789 7.62821Z" stroke="white" stroke-miterlimit="10"/>
<path d="M47.7888 53.7319C47.2142 53.7388 46.6411 53.7945 46.0759 53.8984C45.6058 53.9802 45.1422 54.0961 44.6889 54.2451C44.0613 54.5427 43.4722 54.9153 42.9343 55.3547C42.3192 55.8474 41.7713 56.4186 41.3046 57.0538L40.1604 58.8014L43.4406 58.1079C44.0695 57.8622 44.6772 57.5653 45.2576 57.2202C45.676 56.9747 46.079 56.7037 46.4642 56.4088C47.2826 55.8332 47.9336 55.0506 48.3505 54.1411L47.7888 53.7319Z" stroke="white" stroke-miterlimit="10"/>
<path d="M15.2153 53.9816C15.4939 54.504 15.8115 55.0048 16.1654 55.4795C16.459 55.8684 16.7787 56.2368 17.1224 56.5822C17.6684 57.0076 18.2618 57.3683 18.8908 57.6571C19.6025 57.9701 20.3468 58.2027 21.11 58.3506C21.7967 58.507 22.4912 58.6274 23.1905 58.7112C22.4646 57.7866 21.7388 56.8619 21.0129 55.9372C20.5037 55.4836 19.9613 55.0687 19.3901 54.6959C18.9979 54.4282 18.5824 54.1961 18.1488 54.0024C17.7631 53.8133 17.348 53.6913 16.9213 53.6418C16.4456 53.6127 15.97 53.6983 15.5343 53.8914L15.2153 53.9816Z" stroke="white" stroke-miterlimit="10"/>
<path d="M15.2569 12.5728C15.834 12.5911 16.4116 12.5609 16.9837 12.4827C17.4531 12.4131 17.9167 12.3088 18.3707 12.1706C19.0126 11.8857 19.618 11.5249 20.1738 11.0957C20.7848 10.6029 21.3447 10.0499 21.8451 9.44515C22.2404 8.99438 22.6981 8.43958 23.1697 7.78076L19.7438 8.33556C19.1074 8.56257 18.4905 8.84089 17.8991 9.16775C17.4737 9.39097 17.0657 9.64597 16.6786 9.9306C16.3272 10.1861 16.0203 10.4977 15.7701 10.8529C15.504 11.2731 15.3335 11.7466 15.2708 12.2399L15.2569 12.5728Z" stroke="white" stroke-miterlimit="10"/>
<path d="M48.4199 12.379C48.0973 11.6895 47.6845 11.0459 47.1924 10.465C46.884 10.0886 46.5403 9.74259 46.166 9.43168C45.5922 9.04498 44.9755 8.72615 44.3283 8.48159C43.5975 8.23022 42.8419 8.05816 42.0744 7.9684C41.385 7.86168 40.6906 7.78993 39.9939 7.75342L42.3587 10.4026C42.8297 10.8549 43.3352 11.27 43.8706 11.6439C44.2064 11.885 44.5612 12.0984 44.9316 12.2819C45.2661 12.4658 45.626 12.5991 45.9996 12.6772C46.3463 12.7347 46.7001 12.7347 47.0468 12.6772L48.4199 12.379Z" stroke="white" stroke-miterlimit="10"/>
<path d="M6.31081 27.6217C5.84615 26.9895 5.30583 26.4166 4.7019 25.9157C4.24685 25.5353 3.75692 25.1986 3.23863 24.9102C2.78158 26.3738 2.45665 27.8754 2.26773 29.3971C2.10599 30.7105 2.04339 32.0342 2.08049 33.3569C2.94469 32.6998 3.7605 31.9813 4.52159 31.2071C5.20576 30.506 5.84504 29.7625 6.43564 28.981L6.31081 27.6217Z" stroke="white" stroke-miterlimit="10"/>
<path d="M2.3995 28.905L6.17905 28.2393" stroke="white" stroke-miterlimit="10"/>
<path d="M2.08049 34.2515C2.84858 34.6062 3.57053 35.0534 4.23033 35.583C5.0903 36.2906 5.83439 37.1283 6.43564 38.0657L6.56741 39.0643L3.5507 42.0741C2.68713 39.5508 2.19197 36.9161 2.08049 34.2515Z" stroke="white" stroke-miterlimit="10"/>
<path d="M2.63528 38.2603L6.43564 38.4336" stroke="white" stroke-miterlimit="10"/>
<path d="M60.1122 41.9496C59.2723 41.4517 58.5507 40.7774 57.9971 39.9731C57.6545 39.4742 57.3772 38.9335 57.1718 38.3642C57.6193 37.252 58.317 36.2577 59.2107 35.4585C59.8577 34.8881 60.5993 34.4352 61.4021 34.12V32.4279C60.4344 31.9202 59.5617 31.2492 58.8223 30.4445C58.1974 29.7601 57.6742 28.9894 57.2689 28.156C57.6295 27.5595 58.0387 26.9285 58.4964 26.2904C59.0442 25.5207 59.5852 24.8341 60.1122 24.21" stroke="white" stroke-miterlimit="10"/>
<path d="M57.5047 28.2182L61.1039 28.1558" stroke="white" stroke-miterlimit="10"/>
<path d="M57.4839 38.3086L60.8889 38.5721" stroke="white" stroke-miterlimit="10"/>
<path d="M14.8408 21.9905C14.1074 20.8986 13.6465 19.6468 13.4968 18.3399C13.3472 17.0331 13.5132 15.7094 13.9809 14.48C14.1293 14.2293 14.3062 13.9966 14.5079 13.7865C14.7368 13.5646 14.8686 13.4328 15.0281 13.4051C15.3887 13.3496 15.8117 13.7934 16.1168 14.4522C16.3892 15.625 16.4456 16.8377 16.2833 18.0307C16.0967 19.44 15.6044 20.7914 14.8408 21.9905Z" stroke="white" stroke-miterlimit="10"/>
<path d="M14.716 32.5179C13.8562 31.2241 13.3758 29.7154 13.329 28.1627C13.2994 27.0878 13.4833 26.0177 13.8699 25.0143C14.014 24.7607 14.1912 24.5275 14.397 24.3208C14.6189 24.0919 14.7507 23.9601 14.9171 23.9324C15.2708 23.8769 15.7007 24.3208 16.0059 24.9865C16.303 26.2596 16.3426 27.5793 16.1223 28.8679C15.9019 30.1565 15.4262 31.3881 14.7229 32.4901L14.716 32.5179Z" stroke="white" stroke-miterlimit="10"/>
<path d="M14.7715 42.7122C13.9117 41.4184 13.4313 39.9098 13.3845 38.3571C13.3589 37.283 13.5402 36.2141 13.9185 35.2086C14.065 34.9566 14.242 34.7237 14.4455 34.5151C14.6744 34.2862 14.8061 34.1545 14.9656 34.1267C15.3263 34.0713 15.7493 34.5151 16.0544 35.1809C16.3255 36.3468 16.3819 37.5523 16.2209 38.7385C16.0356 40.1535 15.5408 41.5103 14.7715 42.7122Z" stroke="white" stroke-miterlimit="10"/>
<path d="M14.716 52.9623C13.855 51.6665 13.3745 50.1553 13.329 48.6002C13.3002 47.5253 13.484 46.4553 13.8699 45.4517C14.014 45.1982 14.1912 44.9649 14.397 44.7582C14.6189 44.5363 14.7507 44.4045 14.9171 44.3768C15.2708 44.3213 15.7007 44.7582 16.0059 45.424C16.2766 46.5923 16.333 47.8001 16.1723 48.9886C15.9806 50.403 15.4837 51.7589 14.716 52.9623Z" stroke="white" stroke-miterlimit="10"/>
<path d="M48.725 22.0948C48.0193 20.9882 47.5653 19.74 47.3951 18.4386C47.2249 17.1372 47.3428 15.8143 47.7403 14.5634C47.906 14.3533 48.0589 14.1333 48.198 13.9046C48.4129 13.5717 48.4546 13.44 48.5933 13.4122C48.732 13.3845 48.8221 13.4122 49.2868 13.8907C49.5572 14.1612 49.7653 14.4039 49.904 14.5842C50.2231 15.7487 50.3126 16.9641 50.1675 18.1627C49.9953 19.5668 49.5017 20.9124 48.725 22.0948Z" stroke="white" stroke-miterlimit="10"/>
<path d="M48.6071 32.6287C47.7772 31.3182 47.2995 29.8158 47.2201 28.2666C47.168 27.1933 47.3113 26.1194 47.6432 25.0974C47.7768 24.8588 47.9226 24.6273 48.0801 24.4039C48.2812 24.1265 48.3436 24.0779 48.4129 24.0571C48.4823 24.0363 48.6487 23.9947 49.1897 24.4316C49.4406 24.6421 49.6727 24.8742 49.8832 25.1251C50.1799 26.399 50.2199 27.7192 50.0008 29.0088C49.7817 30.2983 49.3079 31.5313 48.6071 32.6357V32.6287Z" stroke="white" stroke-miterlimit="10"/>
<path d="M48.6557 42.8166C47.9435 41.7112 47.488 40.4604 47.3224 39.156C47.1568 37.8515 47.2853 36.5265 47.6986 35.2783C47.807 35.0035 47.9697 34.7535 48.1772 34.5432C48.3713 34.3421 48.5586 34.1548 48.7944 34.1687C49.0302 34.1826 49.1203 34.3351 49.3561 34.6125C49.5383 34.8241 49.6943 35.057 49.8207 35.306C50.1754 36.5649 50.2549 37.8854 50.0539 39.1778C49.8529 40.4702 49.376 41.7041 48.6557 42.7958V42.8166Z" stroke="white" stroke-miterlimit="10"/>
<path d="M48.5447 53.0661C47.3332 50.7602 47.0147 48.0886 47.6501 45.5625C47.6676 45.3041 47.7728 45.0595 47.9483 44.869C48.0991 44.6975 48.3102 44.5907 48.5378 44.5708C48.8056 44.606 49.0518 44.7365 49.2313 44.9384C49.4436 45.1163 49.6262 45.327 49.7722 45.5625C50.0303 46.7326 50.0842 47.9386 49.9317 49.1271C49.7427 50.5209 49.2707 51.8614 48.5447 53.0661Z" stroke="white" stroke-miterlimit="10"/>
<path d="M31.6303 32.2753C30.8969 31.1834 30.436 29.9315 30.2864 28.6246C30.1367 27.3178 30.3027 25.9941 30.7704 24.7647C30.9163 24.5123 31.0933 24.2793 31.2975 24.0712C31.5263 23.8493 31.6581 23.7175 31.8176 23.6898C32.1713 23.6343 32.6012 24.0712 32.9064 24.737C33.1771 25.9053 33.2335 27.1131 33.0728 28.3015C32.8882 29.7156 32.3958 31.072 31.6303 32.2753Z" stroke="white" stroke-miterlimit="10"/>
<path d="M31.5055 42.8026C30.6458 41.5087 30.1653 40.0001 30.1185 38.4474C30.0912 37.3726 30.2749 36.3029 30.6595 35.2989C30.8031 35.0469 30.9779 34.8139 31.1796 34.6054C31.4084 34.3766 31.5402 34.2448 31.7066 34.2171C32.0603 34.1616 32.4834 34.6054 32.7885 35.2712C33.0894 36.5436 33.1315 37.8635 32.9123 39.1526C32.6931 40.4416 32.2171 41.6734 31.5125 42.7748L31.5055 42.8026Z" stroke="white" stroke-miterlimit="10"/>
<path d="M31.561 52.9969C30.697 51.7026 30.2162 50.1905 30.174 48.6348C30.143 47.5604 30.3244 46.4904 30.708 45.4863C30.8538 45.2339 31.0309 45.0009 31.2351 44.7928C31.4639 44.5709 31.5957 44.4392 31.7552 44.4114C32.1089 44.3559 32.5388 44.7998 32.844 45.4586C33.1407 46.7325 33.1807 48.0527 32.9616 49.3423C32.7425 50.6318 32.2688 51.8647 31.5679 52.9691L31.561 52.9969Z" stroke="white" stroke-miterlimit="10"/>
<path d="M31.5055 63.2397C30.7706 62.1496 30.3093 60.8985 30.1608 59.5922C30.0123 58.286 30.181 56.9632 30.6525 55.736C30.7962 55.484 30.9709 55.251 31.1726 55.0425C31.4015 54.8137 31.5333 54.6889 31.6997 54.6611C32.0534 54.5987 32.4764 55.0425 32.7816 55.7083C33.0833 56.9807 33.1258 58.3007 32.9065 59.5899C32.6873 60.879 32.2108 62.1108 31.5055 63.2119V63.2397Z" stroke="white" stroke-miterlimit="10"/>
<path d="M31.7552 11.748C31.0202 10.6579 30.5589 9.40676 30.4105 8.10053C30.262 6.79429 30.4306 5.47151 30.9022 4.24433C31.0459 3.99232 31.2206 3.75933 31.4223 3.55084C31.6512 3.32198 31.7829 3.19715 31.9494 3.16941C32.303 3.107 32.7261 3.55084 33.0312 4.21659C33.3022 5.38488 33.3586 6.5927 33.1976 7.78116C33.0135 9.19321 32.5211 10.5475 31.7552 11.748Z" stroke="white" stroke-miterlimit="10"/>
</g>
<defs>
<clipPath id="clip0_29_253">
<rect width="63.6491" height="66" fill="white"/>
</clipPath>
</defs>
</svg>
