<svg width="64" height="66" viewBox="0 0 64 66" fill="none" xmlns="http://www.w3.org/2000/svg">
<g clip-path="url(#clip0_3_60)">
<path d="M31.5471 2.35095C23.6489 2.54045 16.1428 5.8314 10.6521 11.512C5.64266 16.8728 2.61799 23.786 2.08045 31.1033C1.96256 33.8357 1.87934 43.1354 8.17628 51.6862C16.6439 63.1775 29.6955 63.9126 31.5471 63.9889C33.3987 64.0651 46.2145 63.5728 54.9248 52.4422C61.9153 43.5099 61.6795 33.482 61.5547 30.9438C60.9254 23.8472 57.982 17.1539 53.1772 11.8935C50.3855 8.9471 47.0351 6.58595 43.3215 4.94763C39.6079 3.30931 35.6053 2.4266 31.5471 2.35095Z" stroke="#0C0505" stroke-width="0.75" stroke-miterlimit="10"/>
<path d="M31.5263 0.346748C23.17 0.546241 15.23 4.03526 9.43152 10.0557C4.14934 15.748 0.968782 23.0731 0.416076 30.819C0.249637 33.7108 0.159483 43.5585 6.82398 52.6225C15.7701 64.7933 29.5637 65.577 31.5263 65.6533C33.4889 65.7295 47.0398 65.2233 56.2494 53.3992C63.6421 43.9399 63.3994 33.2878 63.2607 30.6525C62.5983 23.1332 59.4872 16.0389 54.4047 10.4579C51.4535 7.33811 47.9105 4.83726 43.9825 3.10127C40.0545 1.36527 35.8201 0.428886 31.5263 0.346748Z" stroke="#0C0505" stroke-width="0.75" stroke-miterlimit="10"/>
<path d="M23.3292 28.1421C24.121 26.5118 25.3658 25.1443 26.9145 24.203C28.3964 23.313 30.1038 22.8699 31.8314 22.927C33.7288 22.8294 35.6075 23.3422 37.1921 24.3902C38.5854 25.3275 39.6996 26.6238 40.4169 28.1421C39.5269 29.5909 38.32 30.8191 36.887 31.7344C35.3868 32.689 33.674 33.2583 31.9008 33.3918C29.998 33.3364 28.1505 32.7398 26.5747 31.672C25.2316 30.7655 24.1199 29.5565 23.3292 28.1421Z" stroke="#0C0505" stroke-width="0.75" stroke-miterlimit="10"/>
<path d="M40.4169 28.1421C41.2088 26.5118 42.4535 25.1443 44.0023 24.203C45.4842 23.313 47.1915 22.8699 48.9192 22.927C50.8165 22.8294 52.6952 23.3422 54.2799 24.3902C55.6753 25.3252 56.79 26.6221 57.5047 28.1421C56.6147 29.5909 55.4078 30.8191 53.9748 31.7344C52.4668 32.6941 50.7437 33.2637 48.9608 33.3918C47.0581 33.3364 45.2106 32.7398 43.6348 31.672C42.3017 30.7622 41.1998 29.5534 40.4169 28.1421Z" stroke="#0C0505" stroke-width="0.75" stroke-miterlimit="10"/>
<path d="M6.17902 28.1421C6.97436 26.512 8.22125 25.1448 9.77132 24.203C11.2507 23.3132 12.9558 22.87 14.6813 22.927C16.5808 22.8294 18.4617 23.3422 20.0489 24.3902C21.4408 25.3272 22.5528 26.6237 23.2668 28.1421C22.382 29.5927 21.1769 30.8215 19.7438 31.7344C18.2334 32.6944 16.508 33.264 14.7229 33.3918C12.8222 33.337 10.9767 32.7403 9.40377 31.672C8.06937 30.7617 6.96529 29.5531 6.17902 28.1421Z" stroke="#0C0505" stroke-width="0.75" stroke-miterlimit="10"/>
<path d="M23.3083 38.2324C24.1003 36.5983 25.3478 35.2279 26.9007 34.2864C28.3788 33.3942 30.0853 32.9531 31.8106 33.0173C33.71 32.9123 35.5925 33.423 37.1783 34.4737C38.5695 35.4143 39.6811 36.7129 40.3961 38.2324C39.5063 39.6814 38.2994 40.9097 36.8662 41.8247C35.3585 42.7842 33.635 43.3515 31.8522 43.4752C29.9526 43.4206 28.1077 42.8265 26.5331 41.7623C25.2015 40.8488 24.0981 39.641 23.3083 38.2324Z" stroke="#0C0505" stroke-width="0.75" stroke-miterlimit="10"/>
<path d="M40.3961 38.2324C41.1907 36.6 42.4376 35.2304 43.9884 34.2864C45.4665 33.3942 47.1731 32.9531 48.8984 33.0173C50.7978 32.9118 52.6805 33.4226 54.266 34.4737C55.6572 35.4143 56.7689 36.7129 57.4839 38.2324C56.5972 39.6816 55.3925 40.91 53.9609 41.8247C52.4503 42.7834 50.7247 43.3507 48.94 43.4753C47.0403 43.4206 45.1955 42.8265 43.6209 41.7623C42.2893 40.8488 41.1859 39.641 40.3961 38.2324Z" stroke="#0C0505" stroke-width="0.75" stroke-miterlimit="10"/>
<path d="M6.16516 38.2324C6.95623 36.5999 8.20103 35.2299 9.75053 34.2864C11.2311 33.394 12.9399 32.953 14.6674 33.0173C16.5646 32.9123 18.4449 33.4231 20.0281 34.4737C21.4207 35.4147 22.5346 36.713 23.2529 38.2324C22.361 39.6798 21.1545 40.9076 19.723 41.8247C18.2148 42.7831 16.4916 43.3504 14.709 43.4753C12.8073 43.42 10.9604 42.826 9.38298 41.7623C8.0531 40.8489 6.95192 39.6409 6.16516 38.2324Z" stroke="#0C0505" stroke-width="0.75" stroke-miterlimit="10"/>
<path d="M23.1974 48.5447C23.9885 46.9122 25.2333 45.5422 26.7828 44.5987C28.2633 43.7063 29.9721 43.2652 31.6996 43.3296C33.5978 43.2246 35.4788 43.7381 37.0604 44.7929C38.4536 45.7302 39.5678 47.0265 40.2851 48.5447C39.3908 49.9845 38.1845 51.2051 36.7552 52.1162C35.2482 53.077 33.5243 53.6445 31.7413 53.7667C29.839 53.7149 27.9911 53.1206 26.4152 52.0538C25.0877 51.1463 23.9867 49.9457 23.1974 48.5447Z" stroke="#0C0505" stroke-width="0.75" stroke-miterlimit="10"/>
<path d="M40.2852 48.5447C41.0762 46.9122 42.321 45.5422 43.8705 44.5987C45.3511 43.7063 47.0599 43.2652 48.7874 43.3296C50.6856 43.2246 52.5666 43.7381 54.1481 44.7929C55.5414 45.7302 56.6556 47.0265 57.3729 48.5447C56.481 49.9921 55.2745 51.2199 53.843 52.137C52.3364 53.0986 50.6122 53.6662 48.829 53.7875C46.9267 53.7357 45.0789 53.1414 43.503 52.0746C42.1731 51.1612 41.0719 49.9532 40.2852 48.5447Z" stroke="#0C0505" stroke-width="0.75" stroke-miterlimit="10"/>
<path d="M6.13049 48.4892C6.90119 46.8761 8.11922 45.5185 9.63958 44.5779C11.1348 43.7147 12.8372 43.2759 14.5634 43.3088C16.4637 43.2038 18.3469 43.7172 19.9311 44.7721C21.3207 45.7166 22.428 47.0205 23.135 48.5447C22.2483 49.9938 21.0436 51.2223 19.6121 52.137C18.0929 53.096 16.3565 53.6565 14.5634 53.7667C12.643 53.8472 10.7568 53.2398 9.24429 52.0538C7.94091 51.1265 6.87419 49.9054 6.13049 48.4892Z" stroke="#0C0505" stroke-width="0.75" stroke-miterlimit="10"/>
<path d="M23.1974 58.7391C23.9893 57.1053 25.2338 55.7333 26.7828 54.7862C28.2663 53.9008 29.9729 53.4603 31.6996 53.5171C33.5974 53.4161 35.4771 53.9292 37.0604 54.9804C38.4536 55.9176 39.5678 57.2139 40.2851 58.7322C39.3941 60.182 38.1875 61.4123 36.7552 62.3314C35.2469 63.2904 33.524 63.8599 31.7413 63.9889C29.8385 63.9334 27.991 63.3368 26.4152 62.269C25.0833 61.3579 23.9817 60.1494 23.1974 58.7391Z" stroke="#0C0505" stroke-width="0.75" stroke-miterlimit="10"/>
<path d="M23.3569 17.809C24.1491 16.179 25.3938 14.8115 26.9423 13.8699C28.4242 12.9799 30.1315 12.5368 31.8592 12.5939C33.7565 12.4963 35.6353 13.0092 37.2199 14.0572C38.6125 14.9982 39.7263 16.2964 40.4447 17.8159C39.5528 19.2633 38.3463 20.4911 36.9148 21.4082C35.406 22.3641 33.6827 22.929 31.9008 23.0518C29.9991 22.9965 28.1522 22.4025 26.5748 21.3389C25.2449 20.4255 24.1437 19.2175 23.3569 17.809Z" stroke="#0C0505" stroke-width="0.75" stroke-miterlimit="10"/>
<path d="M40.4446 17.809C41.2377 16.1774 42.4851 14.8095 44.0369 13.8699C45.5163 12.9801 47.2215 12.5369 48.9469 12.5939C50.8464 12.4963 52.7273 13.0091 54.3146 14.0572C55.715 14.9921 56.8365 16.2885 57.5601 17.809C56.6703 19.258 55.4634 20.4862 54.0302 21.4013C52.5221 22.3597 50.7988 22.9269 49.0163 23.0518C47.1145 22.9965 45.2676 22.4025 43.6902 21.3389C42.3502 20.4287 41.2393 19.2205 40.4446 17.809Z" stroke="#0C0505" stroke-width="0.75" stroke-miterlimit="10"/>
<path d="M6.24146 17.809C7.02775 16.1838 8.26208 14.8171 9.79909 13.8699C11.2785 12.9801 12.9836 12.5369 14.709 12.5939C16.6196 12.4858 18.5141 12.9965 20.1114 14.0502C21.5026 14.9909 22.6142 16.2894 23.3292 17.809C22.4425 19.2581 21.2378 20.4865 19.8062 21.4013C18.2957 22.3599 16.5701 22.9272 14.7853 23.0518C12.8858 22.9964 11.0411 22.4023 9.46621 21.3389C8.13463 20.4253 7.03121 19.2175 6.24146 17.809Z" stroke="#0C0505" stroke-width="0.75" stroke-miterlimit="10"/>
<path d="M23.3569 7.57991C24.148 5.94735 25.3928 4.57735 26.9423 3.63392C28.4243 2.74485 30.1321 2.30405 31.8592 2.36482C33.7569 2.26382 35.6367 2.77693 37.2199 3.8281C38.6132 4.76539 39.7273 6.06166 40.4447 7.57991C39.5835 9.05104 38.3706 10.2854 36.9148 11.1722C35.3833 12.0768 33.6379 12.5557 31.8592 12.5592C29.9908 12.6123 28.1497 12.1025 26.5748 11.0959C25.2267 10.2095 24.1207 9.00108 23.3569 7.57991Z" stroke="#0C0505" stroke-width="0.75" stroke-miterlimit="10"/>
<path d="M6.60901 17.8159C8.35861 17.8526 10.0835 17.3986 11.5883 16.5052C13.0477 15.629 14.2545 14.3888 15.0905 12.906C15.8608 14.2919 16.9613 15.4663 18.2944 16.3249C19.6684 17.2081 21.2533 17.7084 22.8854 17.7743C21.3059 17.9735 19.7826 18.4876 18.4054 19.2861C17.031 20.0899 15.8271 21.1547 14.8616 22.4207C14.0584 21.3297 13.0675 20.3904 11.9351 19.6467C10.3449 18.5922 8.51145 17.962 6.60901 17.8159Z" stroke="#0C0505" stroke-width="0.75" stroke-miterlimit="10"/>
<path d="M23.5234 17.6772C25.2757 17.7186 27.0041 17.2642 28.5096 16.3665C29.955 15.4871 31.1493 14.2498 31.9771 12.7742C32.7537 14.1578 33.8558 15.3313 35.188 16.1931C36.6897 17.1569 38.4384 17.6652 40.2228 17.6564C38.4848 17.7711 36.796 18.2811 35.2851 19.1474C33.9048 19.943 32.6995 21.0092 31.7413 22.282C30.9365 21.1925 29.9458 20.2534 28.8148 19.508C27.2348 18.4588 25.4139 17.8287 23.5234 17.6772Z" stroke="#0C0505" stroke-width="0.75" stroke-miterlimit="10"/>
<path d="M40.3337 17.6772C40.3337 17.3443 42.9829 17.8853 45.4032 16.5884C46.8405 15.7615 47.9937 14.5188 48.7111 13.0239C49.5475 14.4143 50.7119 15.5787 52.1023 16.415C53.6455 17.3361 55.4166 17.8047 57.2134 17.7674C55.44 17.9081 53.7236 18.4589 52.1994 19.3763C50.8482 20.1793 49.6696 21.2424 48.7319 22.5039C47.897 21.4018 46.8676 20.4617 45.6944 19.73C43.0453 18.0309 40.306 18.0309 40.3337 17.6772Z" stroke="#0C0505" stroke-width="0.75" stroke-miterlimit="10"/>
<path d="M6.43561 28.2045C8.18734 28.2406 9.91432 27.7867 11.4218 26.8938C12.8673 26.0143 14.0615 24.7771 14.8893 23.3015C15.6534 24.6919 16.7553 25.8677 18.0933 26.7204C19.626 27.6812 21.4101 28.164 23.2182 28.1074C21.4444 28.2483 19.7255 28.7888 18.1904 29.6886C16.8155 30.4917 15.6116 31.5567 14.6466 32.8232C13.8388 31.7338 12.8459 30.7948 11.7131 30.0492C10.1384 28.9975 8.32256 28.3628 6.43561 28.2045Z" stroke="#0C0505" stroke-width="0.75" stroke-miterlimit="10"/>
<path d="M23.3569 28.0658C25.1091 28.1056 26.8371 27.6514 28.3432 26.7551C29.787 25.8737 30.9808 24.6369 31.8106 23.1628C32.5835 24.5469 33.6835 25.7207 35.0146 26.5817C36.5143 27.5442 38.2604 28.0524 40.0424 28.045C38.3048 28.1614 36.6164 28.6713 35.1048 29.536C33.7274 30.3356 32.5227 31.4011 31.561 32.6706C30.7598 31.5778 29.7685 30.6382 28.6344 29.8966C27.0594 28.8479 25.2431 28.2178 23.3569 28.0658Z" stroke="#0C0505" stroke-width="0.75" stroke-miterlimit="10"/>
<path d="M40.1603 28.0658C40.1603 27.7329 42.8164 28.2738 45.2298 26.9839C46.6701 26.1556 47.8258 24.9104 48.5447 23.4124C49.3841 24.8028 50.5507 25.967 51.9428 26.8036C53.4799 27.7366 55.249 28.2173 57.0469 28.1906C55.2693 28.3176 53.5455 28.8565 52.0121 29.7648C50.6617 30.5689 49.4833 31.6318 48.5447 32.8925C47.7098 31.7904 46.6803 30.8503 45.5072 30.1185C42.8788 28.4333 40.1326 28.4333 40.1603 28.0658Z" stroke="#0C0505" stroke-width="0.75" stroke-miterlimit="10"/>
<path d="M6.56738 38.4058C8.31973 38.4472 10.0481 37.9928 11.5536 37.0951C12.999 36.2157 14.1933 34.9784 15.0211 33.5028C15.7903 34.8918 16.8939 36.067 18.232 36.9217C19.6523 37.8302 21.2967 38.3271 22.9824 38.3573C21.3394 38.5298 19.7513 39.0473 18.3221 39.876C16.9575 40.6766 15.763 41.7368 14.8061 42.9967C14.0003 41.9056 13.0071 40.9664 11.8726 40.2228C10.2881 39.1745 8.46182 38.5491 6.56738 38.4058Z" stroke="#0C0505" stroke-width="0.75" stroke-miterlimit="10"/>
<path d="M23.4887 38.274C25.2404 38.3102 26.9674 37.8562 28.4749 36.9633C29.9226 36.0837 31.1174 34.8436 31.9424 33.3641C32.7253 34.7423 33.8352 35.9069 35.1741 36.7553C36.6782 37.7292 38.4309 38.2492 40.2228 38.2532C38.4851 38.3697 36.7967 38.8795 35.2851 39.7443C33.9081 40.5417 32.7054 41.6077 31.7482 42.8789C30.9423 41.7878 29.9491 40.8486 28.8148 40.1049C27.2246 39.0503 25.3911 38.4201 23.4887 38.274Z" stroke="#0C0505" stroke-width="0.75" stroke-miterlimit="10"/>
<path d="M40.2921 38.274C40.2921 37.9412 42.9482 38.4821 45.3616 37.1853C46.7989 36.3583 47.9521 35.1156 48.6695 33.6207C49.5131 35.0078 50.6788 36.1711 52.0677 37.0119C53.6062 37.9418 55.3743 38.4222 57.1718 38.3989C55.3994 38.5397 53.6835 39.0879 52.1578 40.0008C50.8198 40.8086 49.6535 41.8712 48.725 43.1285C47.8864 42.0298 46.8576 41.0903 45.6875 40.3545C42.9967 38.6416 40.2713 38.6139 40.2921 38.274Z" stroke="#0C0505" stroke-width="0.75" stroke-miterlimit="10"/>
<path d="M6.4079 48.6002C8.16074 48.638 9.88878 48.1813 11.3941 47.2825C12.8434 46.4079 14.0387 45.1695 14.8616 43.6902C15.6364 45.0752 16.7389 46.2491 18.0725 47.1092C19.5011 48.0163 21.1518 48.513 22.8438 48.5447C21.1887 48.6413 19.5862 49.1619 18.1904 50.0565C16.8653 50.9033 15.7563 52.048 14.9518 53.3992C14.0944 52.1788 12.9912 51.1512 11.7131 50.3825C10.0595 49.4898 8.2651 48.887 6.4079 48.6002Z" stroke="#0C0505" stroke-width="0.75" stroke-miterlimit="10"/>
<path d="M23.3292 48.4615C25.0802 48.4997 26.8072 48.0482 28.3154 47.1577C29.7608 46.2783 30.9551 45.041 31.7829 43.5654C32.5557 44.9495 33.6557 46.1234 34.9868 46.9843C36.4884 47.9429 38.2333 48.4507 40.0147 48.4476C38.2892 48.5654 36.6128 49.0728 35.1117 49.9317C33.7314 50.7273 32.5261 51.7935 31.5679 53.0663C30.7601 51.9769 29.7672 51.038 28.6344 50.2923C27.0503 49.2411 25.2244 48.611 23.3292 48.4615Z" stroke="#0C0505" stroke-width="0.75" stroke-miterlimit="10"/>
<path d="M40.1395 48.4615C40.1395 48.1286 42.7886 48.6695 45.202 47.3727C46.6538 46.5534 47.8202 45.3095 48.5447 43.8081C49.3863 45.1968 50.5524 46.3605 51.9428 47.1993C53.4821 48.1332 55.2536 48.614 57.0539 48.5863C55.2739 48.713 53.5479 49.2519 52.0121 50.1606C50.6616 50.9646 49.4833 52.0275 48.5447 53.2882C47.7098 52.1861 46.6803 51.246 45.5072 50.5142C42.8511 48.836 40.1118 48.8013 40.1395 48.4615Z" stroke="#0C0505" stroke-width="0.75" stroke-miterlimit="10"/>
<path d="M23.3292 58.8709C25.0813 58.9107 26.8093 58.4565 28.3154 57.5602C29.7608 56.6807 30.9551 55.4435 31.7829 53.9678C32.5557 55.352 33.6557 56.5258 34.9868 57.3868C36.4869 58.3486 38.2328 58.8567 40.0147 58.8501C38.2892 58.9679 36.6128 59.4753 35.1117 60.3341C33.7314 61.1298 32.5261 62.1959 31.5679 63.4687C30.7601 62.3794 29.7672 61.4404 28.6344 60.6948C27.0496 59.646 25.2238 59.0183 23.3292 58.8709Z" stroke="#0C0505" stroke-width="0.75" stroke-miterlimit="10"/>
<path d="M31.769 22.2751C30.9111 20.9778 30.4308 19.4675 30.382 17.913C30.3561 16.8383 30.5398 15.7689 30.923 14.7645C31.0667 14.5125 31.2414 14.2795 31.4431 14.071C31.672 13.8491 31.8037 13.7173 31.9702 13.6896C32.3238 13.6272 32.7469 14.071 33.052 14.7368C33.3225 15.9051 33.3812 17.1124 33.2254 18.3014C33.0324 19.7155 32.5356 21.0711 31.769 22.2751Z" stroke="#0C0505" stroke-width="0.75" stroke-miterlimit="10"/>
<path d="M23.5789 7.62846C25.3174 7.65658 27.0295 7.20034 28.5235 6.31081C29.9679 5.43015 31.1619 4.19318 31.991 2.71851C32.7736 4.10666 33.8858 5.28085 35.2296 6.13744C36.7278 7.10648 38.4732 7.62407 40.2574 7.62846C38.5196 7.74392 36.831 8.25383 35.3197 9.11947C33.9424 9.91906 32.7377 10.9846 31.776 12.2541C30.9729 11.163 29.9819 10.2236 28.8494 9.48009C27.2774 8.42706 25.464 7.78999 23.5789 7.62846Z" stroke="#0C0505" stroke-width="0.75" stroke-miterlimit="10"/>
<path d="M47.7888 53.7321C47.2141 53.739 46.6411 53.7946 46.0759 53.8985C45.6057 53.9804 45.1422 54.0963 44.6889 54.2452C44.0613 54.5428 43.4722 54.9154 42.9343 55.3548C42.3192 55.8475 41.7712 56.4187 41.3046 57.0539L40.1603 58.8015L43.4406 58.108C44.0695 57.8623 44.6772 57.5654 45.2575 57.2203C45.676 56.9748 46.079 56.7038 46.4642 56.409C47.2826 55.8333 47.9336 55.0508 48.3505 54.1412L47.7888 53.7321Z" stroke="#0C0505" stroke-width="0.75" stroke-miterlimit="10"/>
<path d="M15.2153 53.9817C15.4939 54.5042 15.8115 55.0049 16.1654 55.4797C16.459 55.8685 16.7787 56.2369 17.1224 56.5823C17.6684 57.0077 18.2618 57.3684 18.8908 57.6572C19.6024 57.9702 20.3468 58.2028 21.11 58.3507C21.7967 58.5071 22.4912 58.6275 23.1905 58.7114C22.4646 57.7867 21.7388 56.862 21.0129 55.9374C20.5037 55.4837 19.9612 55.0688 19.3901 54.696C18.9978 54.4283 18.5824 54.1962 18.1488 54.0025C17.7631 53.8134 17.348 53.6915 16.9213 53.6419C16.4456 53.6128 15.9699 53.6985 15.5343 53.8916L15.2153 53.9817Z" stroke="#0C0505" stroke-width="0.75" stroke-miterlimit="10"/>
<path d="M15.2569 12.5731C15.834 12.5913 16.4116 12.5612 16.9837 12.4829C17.4531 12.4134 17.9167 12.309 18.3707 12.1709C19.0126 11.886 19.6179 11.5251 20.1738 11.0959C20.7848 10.6031 21.3447 10.0502 21.8451 9.44541C22.2404 8.99464 22.6981 8.43985 23.1697 7.78102L19.7438 8.33582C19.1074 8.56284 18.4905 8.84115 17.8991 9.16802C17.4737 9.39123 17.0656 9.64624 16.6786 9.93086C16.3272 10.1864 16.0203 10.498 15.7701 10.8532C15.504 11.2733 15.3335 11.7469 15.2708 12.2402L15.2569 12.5731Z" stroke="#0C0505" stroke-width="0.75" stroke-miterlimit="10"/>
<path d="M48.4199 12.3789C48.0972 11.6894 47.6845 11.0457 47.1924 10.4649C46.884 10.0885 46.5403 9.74246 46.166 9.43154C45.5922 9.04484 44.9755 8.72601 44.3282 8.48145C43.5975 8.23008 42.8419 8.05803 42.0744 7.96827C41.385 7.86155 40.6906 7.7898 39.9939 7.75328L42.3587 10.4024C42.8297 10.8548 43.3352 11.2698 43.8705 11.6438C44.2064 11.8849 44.5612 12.0982 44.9316 12.2818C45.2661 12.4657 45.626 12.5989 45.9996 12.6771C46.3463 12.7345 46.7001 12.7345 47.0467 12.6771L48.4199 12.3789Z" stroke="#0C0505" stroke-width="0.75" stroke-miterlimit="10"/>
<path d="M6.31081 27.6219C5.84615 26.9897 5.30582 26.4168 4.7019 25.9159C4.24685 25.5355 3.75692 25.1988 3.23862 24.9104C2.78158 26.374 2.45665 27.8756 2.26773 29.3973C2.10598 30.7107 2.04339 32.0344 2.08049 33.3571C2.94469 32.7 3.7605 31.9815 4.52159 31.2073C5.20575 30.5062 5.84504 29.7627 6.43564 28.9812L6.31081 27.6219Z" stroke="#0C0505" stroke-width="0.75" stroke-miterlimit="10"/>
<path d="M2.39948 28.9049L6.17903 28.2392" stroke="#0C0505" stroke-width="0.75" stroke-miterlimit="10"/>
<path d="M2.08044 34.2518C2.84854 34.6065 3.57048 35.0537 4.23028 35.5833C5.09026 36.2909 5.83435 37.1286 6.4356 38.066L6.56736 39.0646L3.55066 42.0744C2.68709 39.5511 2.19192 36.9164 2.08044 34.2518Z" stroke="#0C0505" stroke-width="0.75" stroke-miterlimit="10"/>
<path d="M2.63525 38.2602L6.43561 38.4335" stroke="#0C0505" stroke-width="0.75" stroke-miterlimit="10"/>
<path d="M60.1122 41.9496C59.2723 41.4517 58.5506 40.7773 57.997 39.9731C57.6545 39.4742 57.3772 38.9335 57.1718 38.3642C57.6193 37.2519 58.3169 36.2577 59.2106 35.4584C59.8576 34.8881 60.5992 34.4351 61.4021 34.12V32.4279C60.4344 31.9201 59.5616 31.2491 58.8223 30.4445C58.1974 29.7601 57.6742 28.9893 57.2688 28.1559C57.6295 27.5595 58.0386 26.9284 58.4963 26.2904C59.0442 25.5206 59.5851 24.8341 60.1122 24.2099" stroke="#0C0505" stroke-width="0.75" stroke-miterlimit="10"/>
<path d="M57.5046 28.2183L61.1039 28.1559" stroke="#0C0505" stroke-width="0.75" stroke-miterlimit="10"/>
<path d="M57.4838 38.3087L60.8889 38.5722" stroke="#0C0505" stroke-width="0.75" stroke-miterlimit="10"/>
<path d="M14.8408 21.9908C14.1073 20.8989 13.6464 19.647 13.4968 18.3401C13.3472 17.0333 13.5132 15.7096 13.9808 14.4802C14.1293 14.2295 14.3061 13.9968 14.5079 13.7867C14.7368 13.5648 14.8685 13.433 15.028 13.4053C15.3886 13.3498 15.8117 13.7936 16.1168 14.4525C16.3892 15.6253 16.4456 16.8379 16.2833 18.0309C16.0966 19.4402 15.6043 20.7916 14.8408 21.9908Z" stroke="#0C0505" stroke-width="0.75" stroke-miterlimit="10"/>
<path d="M14.7159 32.518C13.8562 31.2242 13.3757 29.7156 13.3289 28.1629C13.2994 27.0879 13.4832 26.0178 13.8699 25.0144C14.0139 24.7608 14.1912 24.5276 14.3969 24.3209C14.6188 24.092 14.7506 23.9603 14.917 23.9325C15.2707 23.8771 15.7007 24.3209 16.0058 24.9867C16.303 26.2598 16.3425 27.5794 16.1222 28.868C15.9019 30.1567 15.4261 31.3882 14.7229 32.4903L14.7159 32.518Z" stroke="#0C0505" stroke-width="0.75" stroke-miterlimit="10"/>
<path d="M14.7714 42.7124C13.9117 41.4186 13.4312 39.91 13.3844 38.3573C13.3589 37.2832 13.5402 36.2143 13.9184 35.2088C14.0649 34.9568 14.242 34.7239 14.4455 34.5153C14.6743 34.2864 14.8061 34.1547 14.9656 34.1269C15.3262 34.0715 15.7493 34.5153 16.0544 35.181C16.3255 36.347 16.3819 37.5525 16.2208 38.7387C16.0356 40.1537 15.5407 41.5105 14.7714 42.7124Z" stroke="#0C0505" stroke-width="0.75" stroke-miterlimit="10"/>
<path d="M14.716 52.9623C13.855 51.6665 13.3745 50.1553 13.329 48.6002C13.3002 47.5253 13.484 46.4553 13.8699 45.4517C14.014 45.1982 14.1912 44.9649 14.397 44.7582C14.6189 44.5363 14.7507 44.4045 14.9171 44.3768C15.2708 44.3213 15.7007 44.7582 16.0059 45.424C16.2766 46.5923 16.333 47.8001 16.1723 48.9886C15.9806 50.403 15.4837 51.7589 14.716 52.9623Z" stroke="#0C0505" stroke-width="0.75" stroke-miterlimit="10"/>
<path d="M48.725 22.0948C48.0193 20.9882 47.5653 19.74 47.3951 18.4386C47.2249 17.1372 47.3427 15.8143 47.7402 14.5634C47.906 14.3533 48.0589 14.1333 48.1979 13.9046C48.4129 13.5717 48.4545 13.44 48.5932 13.4122C48.7319 13.3845 48.8221 13.4122 49.2867 13.8907C49.5572 14.1612 49.7652 14.4039 49.9039 14.5842C50.2231 15.7486 50.3126 16.964 50.1675 18.1627C49.9953 19.5668 49.5017 20.9124 48.725 22.0948Z" stroke="#0C0505" stroke-width="0.75" stroke-miterlimit="10"/>
<path d="M48.6071 32.629C47.7772 31.3185 47.2995 29.816 47.2201 28.2669C47.168 27.1936 47.3113 26.1197 47.6431 25.0976C47.7767 24.8591 47.9226 24.6276 48.08 24.4041C48.2812 24.1267 48.3436 24.0782 48.4129 24.0574C48.4823 24.0366 48.6487 23.995 49.1896 24.4319C49.4406 24.6424 49.6726 24.8744 49.8831 25.1254C50.1799 26.3993 50.2199 27.7195 50.0008 29.009C49.7817 30.2986 49.3079 31.5315 48.6071 32.6359V32.629Z" stroke="#0C0505" stroke-width="0.75" stroke-miterlimit="10"/>
<path d="M48.6556 42.8164C47.9435 41.7111 47.4879 40.4602 47.3223 39.1558C47.1567 37.8514 47.2853 36.5264 47.6986 35.2781C47.8069 35.0034 47.9697 34.7533 48.1771 34.543C48.3713 34.3419 48.5585 34.1547 48.7943 34.1685C49.0301 34.1824 49.1203 34.335 49.3561 34.6124C49.5383 34.824 49.6943 35.0568 49.8207 35.3059C50.1754 36.5648 50.2549 37.8853 50.0539 39.1776C49.8528 40.47 49.376 41.704 48.6556 42.7956V42.8164Z" stroke="#0C0505" stroke-width="0.75" stroke-miterlimit="10"/>
<path d="M48.5447 53.0663C47.3332 50.7604 47.0147 48.0887 47.6501 45.5627C47.6676 45.3043 47.7728 45.0597 47.9483 44.8692C48.0991 44.6976 48.3102 44.5908 48.5378 44.571C48.8056 44.6061 49.0518 44.7366 49.2313 44.9385C49.4436 45.1165 49.6262 45.3272 49.7722 45.5627C50.0303 46.7328 50.0842 47.9387 49.9317 49.1272C49.7427 50.5211 49.2707 51.8615 48.5447 53.0663Z" stroke="#0C0505" stroke-width="0.75" stroke-miterlimit="10"/>
<path d="M31.6303 32.2753C30.8969 31.1834 30.436 29.9315 30.2864 28.6247C30.1367 27.3178 30.3027 25.9942 30.7704 24.7647C30.9162 24.5123 31.0933 24.2793 31.2975 24.0712C31.5263 23.8493 31.6581 23.7176 31.8176 23.6898C32.1713 23.6343 32.6012 24.0712 32.9064 24.737C33.1771 25.9053 33.2335 27.1131 33.0728 28.3016C32.8881 29.7156 32.3958 31.072 31.6303 32.2753Z" stroke="#0C0505" stroke-width="0.75" stroke-miterlimit="10"/>
<path d="M31.5055 42.8026C30.6458 41.5088 30.1653 40.0001 30.1185 38.4474C30.0911 37.3726 30.2749 36.3029 30.6594 35.2989C30.8031 35.0469 30.9779 34.8139 31.1796 34.6054C31.4084 34.3766 31.5402 34.2448 31.7066 34.2171C32.0603 34.1616 32.4833 34.6054 32.7885 35.2712C33.0894 36.5436 33.1315 37.8636 32.9123 39.1526C32.6931 40.4416 32.217 41.6734 31.5124 42.7748L31.5055 42.8026Z" stroke="#0C0505" stroke-width="0.75" stroke-miterlimit="10"/>
<path d="M31.561 52.9969C30.6969 51.7026 30.2162 50.1905 30.174 48.6349C30.143 47.5604 30.3244 46.4905 30.708 45.4864C30.8538 45.234 31.0309 45.001 31.235 44.7929C31.4639 44.571 31.5957 44.4392 31.7552 44.4115C32.1089 44.356 32.5388 44.7998 32.844 45.4587C33.1407 46.7325 33.1807 48.0528 32.9616 49.3423C32.7425 50.6318 32.2688 51.8648 31.5679 52.9692L31.561 52.9969Z" stroke="#0C0505" stroke-width="0.75" stroke-miterlimit="10"/>
<path d="M31.5055 63.2399C30.7706 62.1499 30.3093 60.8987 30.1608 59.5925C30.0123 58.2862 30.181 56.9634 30.6525 55.7363C30.7962 55.4843 30.9709 55.2513 31.1726 55.0428C31.4015 54.8139 31.5332 54.6891 31.6997 54.6613C32.0534 54.5989 32.4764 55.0428 32.7815 55.7085C33.0832 56.9809 33.1257 58.301 32.9065 59.5901C32.6873 60.8792 32.2108 62.111 31.5055 63.2121V63.2399Z" stroke="#0C0505" stroke-width="0.75" stroke-miterlimit="10"/>
<path d="M31.7551 11.7478C31.0202 10.6578 30.5589 9.40663 30.4104 8.10039C30.2619 6.79415 30.4306 5.47137 30.9021 4.24419C31.0458 3.99218 31.2206 3.7592 31.4223 3.5507C31.6511 3.32185 31.7829 3.19702 31.9493 3.16928C32.303 3.10686 32.726 3.5507 33.0312 4.21646C33.3022 5.38474 33.3586 6.59257 33.1976 7.78102C33.0135 9.19307 32.521 10.5473 31.7551 11.7478Z" stroke="#0C0505" stroke-width="0.75" stroke-miterlimit="10"/>
</g>
<defs>
<clipPath id="clip0_3_60">
<rect width="63.6491" height="66" fill="white"/>
</clipPath>
</defs>
</svg>
